<svg id="Layer_1" data-name="Layer 1" xmlns="http://www.w3.org/2000/svg" viewBox="0 0 1092.98 425.25"><defs><style>.cls-1{stroke:#000;stroke-miterlimit:10;stroke-width:2px;}</style></defs><path class="cls-1" d="M297.8,400.68c5.27,15.26,31,3.86,12.47-4.15-12.48-2.84-21.2-10.91-20.22-18.63-1.14-19.54,33.15-21.95,37-3.84l-9.13,4.56c-3.5-4.3-5.48-6.34-9.07-6.05-7.41-.15-10.59,7.86-.79,11.14,28.56,5.26,26.25,35.19.72,35.43-10.12.18-21.75-6.63-21-16.49Z"/><path class="cls-1" d="M390.81,362.54c1.44-.11,0,34.12.51,34.63,0,14.33-10.59,22-23.09,22-30.9.48-21.77-36.15-23-56.1-.63-1.12,11.66-.24,11.83-.5a.5.5,0,0,1,.51.5v34.13c-.33,15.54,21.71,15.48,21.42,0V363C378.45,361.91,390.56,362.81,390.81,362.54Z"/><path class="cls-1" d="M411.22,417.76c.49-.53-1-55.33.5-55.22h23.94c23.67-.48,23.87,36.7,0,36.06H424.07c-1.22,0-.19,18.53-.51,19.16.55,1.14-11.61.23-11.83.51A.51.51,0,0,1,411.22,417.76Zm22.85-28.87c9.43.5,9.28-17.11,0-16.56-.35.32-10.86-.67-10.51.51C424.59,391.37,418.91,388.86,434.07,388.89Z"/><path class="cls-1" d="M469.81,417.76c.5-.53-.94-55.33.51-55.22h23.94c23.67-.48,23.87,36.7,0,36.06h-11.6c-1.21,0-.18,18.53-.51,19.16.55,1.14-11.6.23-11.83.51A.51.51,0,0,1,469.81,417.76Zm22.85-28.87c9.43.5,9.29-17.11,0-16.56-.35.32-10.85-.67-10.51.51C483.19,391.37,477.51,388.86,492.66,388.89Z"/><path class="cls-1" d="M566,409c-.21.2.54,9.82-.51,9.29H528.92c-1-.44-1-55.29,0-55.73.29.22,12.35-.59,11.84.5V408C540.51,409.56,566.23,407.39,566,409Z"/><path class="cls-1" d="M595.37,384.27l13.06-21.49c.21-.67,14.07,0,14.48-.24-.18.37.19,1.44-.08,1.72-.09.28-21.42,31-21.33,31.31v22.19a.51.51,0,0,1-.51.51c-.26-.26-12.36.6-11.83-.51v-22c.08-.33-21.24-31.19-21.33-31.47-.29-.28,0-1.42-.09-1.72.41.21,14.28-.43,14.48.24l13.07,21.49Z"/><path class="cls-1" d="M689.15,361.66c8.28.22,15.38,2.45,19.77,7.4l-4.6,8.49c-4.36-1.35-8.58-5.48-15.09-4.9-24-.74-24,36.25,0,35.51,6.51.57,10.73-3.55,15.09-4.9-.13.21,5.51,9.09,4.46,9.14C663.55,443,632.59,366.2,689.15,361.66Z"/><path class="cls-1" d="M749.1,361.66c38,.69,38,56.8,0,57.48C711,418.47,711,362.33,749.1,361.66Zm0,46.18c21.89.31,21.89-35.19,0-34.87C727.09,372.64,727.1,408.17,749.1,407.84Z"/><path class="cls-1" d="M797.59,405.29c9.76-.23,9.91,14.11,0,13.85C787.74,419.42,787.88,405,797.59,405.29Z"/><path class="cls-1" d="M349.28,274.69a2.6,2.6,0,0,0-2,.57c-7.9,6.42-18.11,10.73-25.39,10.95-11.57-.1-18.15-9.28-25-18.39a2.62,2.62,0,0,0-1.71-1L282.87,265c-2.38-.35-.34,6.25,1.21,8.1,11.07,13.22,13.82,25.77,37.5,25.83,16.52,0,24.22-8.35,34.93-19a2.61,2.61,0,0,0-1.46-4.44Z"/><path class="cls-1" d="M320.07,254.23c.27-.39,8.92-10.31,9.19-10.7,59.7-87.32-51.7-110.68-52.82-163C273.57,28.15,380-6.84,384.69,37.14c-.57,18.17-18.34,29.33-28,36.74-1.64,1.34-3.51,2.3-3.56,5.09,2.79,13.65,20.62-3.29,30.3-11.62,9.85-9.81,14.84-20.06,14.84-30.48-6.1-66.54-139.11-22.57-135.47,43.7,1.56,61.48,136.75,88.82,30.18,181.27C194.92,90,114.55,300.57,234.11,298.58c30.44-.5,59.25-15.32,84.84-43.12Zm-103.38,28c-62.13-13.47-10.64-146.78,65.32-13C269,277.91,247.49,288.88,216.69,282.2Z"/><path class="cls-1" d="M912.2,139.43c-8.33,0-21.11-1.8-33.06-3.71,2.71-5,21.58-30.21,26.09-36.72,3.09-4.44,3.06-8.54,2-10.09-10.15-14.79-25.21,14-43.58,44.64-9.56-1.07-32.19-2.19-40-2.18-18.85-.81-32.09,12.2-18.43,16.2,10-5.44,36.86-4.55,50.69-2.32-24.38,38.66-40.69,79.46-41.62,102.92-6.8,6.7-38.57,39-77.73,39-17.71.14-28.28-7.49-28-18.91C839,242.59,807.66,153.75,722.9,218.64c-15.29,12.24-25.16,26.82-28.1,39.94-10.21,11.08-26,25.88-38.43,26.24-16.69-.13-23-20.32-34.68-29.76,24.51-15.28,86.65-43.28,60.12-59.95a4.76,4.76,0,0,0-4.08,2.75c-14.89,29.18-75.14,45.68-99.94,70.91,18.4-43.76,114.55-106,133.4-165.35,2.2-11.88-7.33-21.37-20-21.37-33.07,0-56.81,44.82-106.09,142.62-11.68,38.31-58,62.51-88.12,62.27-58.19-5.8,5.85-83.35,42.09-80,10-.25,8.29,10.12,3,14.2-4.68,3.52-1,8.85,3.73,8.8,19.58-6.74,18-35-9.47-34.39-14.71-1.34-32.29,7.44-46.91,20.34A376.67,376.67,0,0,1,452,238.4c7.68-20.39-.36-43.22-28.33-42.88-29.51-1.76-68.93,38.77-75.29,69.33-3.07,14.74,7.16,24.78,7.14,24.76,26,24.44,67.41-4.7,87.87-34.94A237.69,237.69,0,0,0,467.12,243c-13.7,24.55-9.33,54.55,28.3,56,25.74,0,49.42-14.23,65.95-26.11-4.66,14.1-11.25,21.93,1,25.1,4.3.18,8.36-6.63,12.51-10.41,9.56-9.83,20.34-16.53,35.09-25.58,14.72,13.43,19.11,35.51,46.17,35.57,18.39,0,25.84-11,38.71-23.21,19.42,51,95.45,12.63,120.55-12.43a52.12,52.12,0,0,0,22.67,33,33.24,33.24,0,0,0,20.28,4.24c6.39-.88,17-5.45,12.74-9.42-2.73-2.53-9.86-.92-14.35-1.11-8.42-.36-12.23-4.21-15.47-7-34.5-29.88.69-85.61,30.49-134.66,13.66.25,43.88,11.09,47-3.26C918.77,142.1,917.91,139.43,912.2,139.43Zm-136,68.31c27.88,6.54-27.35,45.56-66.42,47.83C711.51,237.15,753.14,206,776.22,207.74ZM691.19,96c7,0,7.66,5.32,5.1,13.08-8.27,25.08-77.82,93.11-88.76,104.06-3.14,3.14-5.52,5.62-7.3,7.57C646.39,135.39,667.71,96,691.19,96ZM596.63,227.32c2.25-.7,6.36-3.61-1.4,2.59ZM378.24,285.54c-38.66-5.09-2.85-46.75-2.85-46.75s-7.31,13.27-3.62,19.94c5.21,9.42,15.63,14.43,49.52,2.74C407.59,275.36,388.8,287.05,378.24,285.54Zm55.87-41.43c-11.45,7.61-33.36,12.26-40.5,13.22C365.35,261.14,400,208.69,425,207h0C447.25,211.57,445.75,226.68,434.11,244.11Z"/><path class="cls-1" d="M878.35,280.62c-7.05,4.63-13.76,7-19.76,7.14-9.39-.06-17.38-3.82-24.69-14.34-.19-.29-1.07.09-1.4,0l-11.4-2.12a1.43,1.43,0,0,0-1.57,2c4.35,9.68,17.19,28.27,38.77,26.43,14.33-1.22,22.09-5.79,29-12.84,2.77-2.84,4.41-7.73.65-10C884.83,275.05,878.64,280.42,878.35,280.62Z"/></svg>